PathFileType	4	(X/Y/Z)	/Users/itak/Documents/Research/Walk-IL/dataset/trc/00206_00008.trc
DataRate	CameraRate	NumFrames	NumMarkers	Units	OrigDataRate	OrigDataStartFrame	OrigNumFrames
100.000000	100.000000	4	53	mm	100.000000	218	582
Frame#	Time	RPSI			LPSI			L3			STRN			T10			C7			CLAV			RBAK			LBAK			LSHO			LUPA			LAEL			LAOL			LWTS			LWPS			LFRA			LIFD			LHPS			LHTS			RSHO			RUPA			RAEL			RAOL			RWTS			RWPS			RFRA			RIFD			RHTS			RHPS			RBHD			LFHD			RFHD			LBHD			LHIP			RHIP			RASI			LASI			LKNE			LTHI			LANK			LTIP			LTOE			LMT1			LMT5			LHEE			RKNE			RTHI			RANK			RTIP			RTOE			RMT1			RMT5			RHEE			
		X1	Y1	Z1	X2	Y2	Z2	X3	Y3	Z3	X4	Y4	Z4	X5	Y5	Z5	X6	Y6	Z6	X7	Y7	Z7	X8	Y8	Z8	X9	Y9	Z9	X10	Y10	Z10	X11	Y11	Z11	X12	Y12	Z12	X13	Y13	Z13	X14	Y14	Z14	X15	Y15	Z15	X16	Y16	Z16	X17	Y17	Z17	X18	Y18	Z18	X19	Y19	Z19	X20	Y20	Z20	X21	Y21	Z21	X22	Y22	Z22	X23	Y23	Z23	X24	Y24	Z24	X25	Y25	Z25	X26	Y26	Z26	X27	Y27	Z27	X28	Y28	Z28	X29	Y29	Z29	X30	Y30	Z30	X31	Y31	Z31	X32	Y32	Z32	X33	Y33	Z33	X34	Y34	Z34	X35	Y35	Z35	X36	Y36	Z36	X37	Y37	Z37	X38	Y38	Z38	X39	Y39	Z39	X40	Y40	Z40	X41	Y41	Z41	X42	Y42	Z42	X43	Y43	Z43	X44	Y44	Z44	X45	Y45	Z45	X46	Y46	Z46	X47	Y47	Z47	X48	Y48	Z48	X49	Y49	Z49	X50	Y50	Z50	X51	Y51	Z51	X52	Y52	Z52	X53	Y53	Z53	

219	2.18	-1044.255493164062	1048.732177734375	-512.9762573242188	-1033.515502929688	1049.78125	-637.1903686523438	-1036.974731445312	1087.804443359375	-574.0777587890625	-771.9545288085938	1290.852172851562	-539.9138793945312	-1065.66064453125	1243.383422851562	-586.4356689453125	-995.0128784179688	1512.186401367188	-578.4918823242188	-797.8672485351562	1404.826416015625	-546.3114624023438	-1079.194091796875	1332.4755859375	-488.1100158691406	-984.4345092773438	1493.408203125	-679.920166015625	-894.5917358398438	1482.213745117188	-745.1099853515625	-917.8312377929688	1353.9208984375	-827.5381469726562	-911.2781982421875	1135.421997070312	-847.7274169921875	-968.7078857421875	1121.0703125	-782.5910034179688	-814.7451171875	899.0855712890625	-805.8165283203125	-887.9407958984375	882.404052734375	-858.9625854492188	-898.3146362304688	1025.131103515625	-862.2431030273438	-814.931640625	714.2727661132812	-783.009033203125	-870.4457397460938	812.1571044921875	-853.705322265625	-803.9573364257812	819.7561645507812	-826.42822265625	-964.0772094726562	1481.604125976562	-390.7554321289062	-997.34814453125	1413.322631835938	-329.7786254882812	-1031.998901367188	1125.710205078125	-289.9110412597656	-1003.009765625	1117.422973632812	-384.3869934082031	-886.994140625	907.026611328125	-254.1560974121094	-970.635009765625	885.787841796875	-235.7329406738281	-1012.734802246094	1054.9013671875	-263.6378173828125	-851.754638671875	720.7216186523438	-260.5380249023438	-858.6155395507812	818.3734130859375	-232.1598358154297	-937.7161865234375	805.8922119140625	-223.3932037353516	-965.9010009765625	1663.054321289062	-490.7284240722656	-769.5943603515625	1726.57958984375	-556.1043701171875	-809.363525390625	1710.256713867188	-434.1401062011719	-932.2489013671875	1687.68798828125	-621.7073364257812	-929.4356689453125	981.4908447265625	-747.681884765625	-898.2202758789062	1008.574584960938	-378.0551147460938	-813.376953125	1030.415649414062	-429.4455261230469	-805.3856201171875	1019.900207519531	-687.7597045898438	-895.4205932617188	479.5209045410156	-763.3204345703125	-890.6671142578125	627.05126953125	-768.8255004882812	-1304.82373046875	226.3346405029297	-732.5827026367188	-1088.099975585938	345.0947570800781	-765.3543701171875	-1190.933349609375	49.98225021362305	-733.548583984375	-1209.489013671875	86.62140655517578	-682.2183837890625	-1272.63330078125	126.1513442993164	-777.6707763671875	-1312.752685546875	270.4769897460938	-661.8273315429688	-784.8326416015625	515.1273803710938	-433.0732421875	-809.7777099609375	783.3259887695312	-376.5875549316406	-835.970947265625	30.35526847839355	-495.6314697265625	-762.3965454101562	394.735595703125	-456.1541442871094	-613.3491821289062	48.16568756103516	-477.4768371582031	-654.8429565429688	44.10149765014648	-534.443359375	-734.0133056640625	36.33572006225586	-437.68505859375	-867.4207153320312	31.18706321716309	-574.491943359375	
220	2.19	-1036.854736328125	1049.152465820312	-510.4336547851562	-1025.803833007812	1050.12548828125	-634.541259765625	-1029.44189453125	1088.320068359375	-571.4666137695312	-764.6112060546875	1291.465698242188	-537.108642578125	-1058.144775390625	1244.141235351562	-583.8583984375	-987.4075317382812	1512.934448242188	-576.0858154296875	-790.3778686523438	1405.493286132812	-543.6563720703125	-1071.72265625	1333.365844726562	-485.5225219726562	-976.7507934570312	1493.9755859375	-677.5327758789062	-886.796630859375	1482.631958007812	-742.609130859375	-909.4913940429688	1354.0205078125	-824.6748046875	-901.6381225585938	1135.50927734375	-844.7197875976562	-959.1372680664062	1120.811401367188	-779.8079223632812	-802.6934204101562	900.4202880859375	-801.611083984375	-875.7263793945312	882.6696166992188	-854.8148803710938	-887.5164794921875	1025.23828125	-858.7889404296875	-800.689453125	715.6688232421875	-778.4158325195312	-857.2304077148438	812.6959228515625	-849.3352661132812	-790.7434692382812	821.3091430664062	-821.950439453125	-956.3895874023438	1482.408447265625	-388.2196350097656	-989.5614013671875	1414.232055664062	-327.0688171386719	-1022.772277832031	1126.412231445312	-285.8669738769531	-994.6614990234375	1118.076171875	-380.60107421875	-874.5305786132812	909.7885131835938	-250.8426666259766	-957.6982421875	887.3230590820312	-231.6904449462891	-1002.468322753906	1055.760009765625	-259.5874938964844	-836.5846557617188	724.066162109375	-256.9031982421875	-844.6405639648438	821.6810302734375	-228.7867431640625	-923.4641723632812	807.9857788085938	-219.3611145019531	-958.7852783203125	1663.52001953125	-488.1075134277344	-762.1929931640625	1727.453735351562	-552.4299926757812	-802.369140625	1710.517700195312	-430.6463623046875	-924.6022338867188	1688.754760742188	-618.7408447265625	-921.3467407226562	981.7457275390625	-744.7288208007812	-891.0532836914062	1009.065551757812	-375.1701354980469	-806.1600341796875	1031.159301757812	-426.3883361816406	-797.476806640625	1020.782897949219	-684.7859497070312	-874.6687622070312	480.0310668945312	-760.8534545898438	-874.1004028320312	627.677001953125	-766.2254638671875	-1286.174438476562	230.2041168212891	-731.9307861328125	-1067.856567382812	347.0409545898438	-763.5404663085938	-1169.664672851562	54.52974700927734	-734.6284790039062	-1189.061279296875	90.95089721679688	-682.7835693359375	-1252.467407226562	130.9663848876953	-777.8788452148438	-1294.943603515625	273.4703979492188	-660.7534790039062	-781.0629272460938	514.6986694335938	-431.7171630859375	-803.7168579101562	783.12939453125	-374.4437561035156	-835.9578857421875	30.3612003326416	-495.5948181152344	-759.5995483398438	394.1707153320312	-455.2119445800781	-613.1608276367188	47.73698043823242	-477.5296630859375	-654.81982421875	43.95223236083984	-534.53466796875	-733.9701538085938	36.27493286132812	-437.6538391113281	-867.46630859375	31.20461845397949	-574.456787109375	
221	2.2	-1029.585693359375	1049.534057617188	-508.0040588378906	-1018.143676757812	1050.494262695312	-631.9953002929688	-1022.010375976562	1088.826904296875	-568.9397583007812	-757.375732421875	1292.117065429688	-534.3363037109375	-1050.716674804688	1244.9072265625	-581.3547973632812	-979.9066162109375	1513.690307617188	-573.7635498046875	-783.0027465820312	1406.201782226562	-541.0669555664062	-1064.360595703125	1334.286865234375	-483.012451171875	-969.1860961914062	1494.546264648438	-675.2271728515625	-879.1177978515625	1483.07958984375	-740.1742553710938	-901.2755126953125	1354.165649414062	-821.9005737304688	-892.0809326171875	1135.635986328125	-841.7384643554688	-949.64697265625	1120.597900390625	-777.0342407226562	-790.584228515625	901.8944091796875	-797.3831176757812	-863.5367431640625	883.0150146484375	-850.6204223632812	-876.7947387695312	1025.402099609375	-855.3388671875	-786.3557739257812	717.243408203125	-773.7576293945312	-843.98583984375	813.3306884765625	-844.8983764648438	-777.4952392578125	823.007568359375	-817.4439697265625	-948.85546875	1483.294311523438	-385.7895812988281	-981.9317626953125	1415.2236328125	-324.4533996582031	-1013.656494140625	1127.198852539062	-281.9437561035156	-986.3760375976562	1118.816162109375	-376.9049072265625	-862.1817626953125	912.7053833007812	-247.5887298583984	-944.8807983398438	888.9920654296875	-227.7890625	-992.3178100585938	1056.720336914062	-255.6519927978516	-821.4790649414062	727.6112670898438	-253.3587036132812	-830.799560546875	825.1564331054688	-225.4819488525391	-909.3160400390625	810.2359008789062	-215.4715118408203	-951.7183837890625	1664.037353515625	-485.62548828125	-754.7788696289062	1728.280029296875	-548.8580322265625	-795.3892211914062	1710.770629882812	-427.2582702636719	-916.9453125	1689.834594726562	-615.8965454101562	-913.1635131835938	982.143798828125	-741.8501586914062	-884.1513061523438	1009.496032714844	-372.302001953125	-799.19140625	1031.918823242188	-423.2759399414062	-789.5968627929688	1021.736694335938	-681.7329711914062	-854.0682373046875	480.9322204589844	-757.9677124023438	-857.6465454101562	628.5732421875	-763.3326416015625	-1266.643310546875	232.6919250488281	-731.337646484375	-1047.293334960938	348.7392883300781	-761.4835205078125	-1146.783081054688	58.73740386962891	-735.05615234375	-1167.208984375	94.54125213623047	-682.845947265625	-1230.81640625	134.5703125	-777.9222412109375	-1276.581298828125	275.1850280761719	-659.8175048828125	-777.6253051757812	514.2452392578125	-430.3422241210938	-797.9275512695312	782.8673706054688	-372.1585693359375	-835.9630126953125	30.3606014251709	-495.5697937011719	-757.0572509765625	393.6181335449219	-454.2421875	-613.025146484375	47.38107681274414	-477.5714416503906	-654.807373046875	43.84234619140625	-534.5917358398438	-733.9546508789062	36.212158203125	-437.6178894042969	-867.5050659179688	31.22112846374512	-574.4366455078125	
222	2.21	-1022.427185058594	1049.891235351562	-505.7002563476562	-1010.514709472656	1050.883666992188	-629.5623779296875	-1014.647399902344	1089.3310546875	-566.5023803710938	-750.2249755859375	1292.82373046875	-531.578369140625	-1043.355834960938	1245.680297851562	-578.924560546875	-972.5026245117188	1514.451904296875	-571.5177001953125	-775.727783203125	1406.963745117188	-538.5245361328125	-1057.100952148438	1335.229248046875	-480.5840759277344	-961.7260131835938	1495.130859375	-672.9949340820312	-871.5433349609375	1483.572387695312	-737.7919921875	-893.1810913085938	1354.380859375	-819.21533203125	-882.627685546875	1135.826293945312	-838.7847900390625	-940.2634887695312	1120.459106445312	-774.262939453125	-778.4653930664062	903.52783203125	-793.1434326171875	-851.3824462890625	883.4647827148438	-846.3822021484375	-866.1744995117188	1025.645629882812	-851.893798828125	-771.9581298828125	719.0333251953125	-769.0126342773438	-830.7421264648438	814.0855712890625	-840.3932495117188	-764.25244140625	824.8698120117188	-812.9114990234375	-941.4923095703125	1484.263793945312	-383.4585876464844	-974.4688110351562	1416.290893554688	-321.9322204589844	-1004.656616210938	1128.064819335938	-278.146240234375	-978.1466064453125	1119.641845703125	-373.2962341308594	-849.97216796875	915.7582397460938	-244.4059600830078	-932.1990356445312	890.7875366210938	-224.0308227539062	-982.2929077148438	1057.77587890625	-251.8357543945312	-806.4851684570312	731.3397827148438	-249.9271697998047	-817.1241455078125	828.779541015625	-222.2611083984375	-895.3123168945312	812.6302490234375	-211.7354431152344	-944.6727905273438	1664.621826171875	-483.2549438476562	-747.3504638671875	1729.064086914062	-545.395751953125	-788.4161987304688	1711.029174804688	-423.983154296875	-909.2814331054688	1690.94189453125	-613.1728515625	-904.824951171875	982.6842651367188	-739.0469360351562	-877.531494140625	1009.8603515625	-369.4461975097656	-792.4649047851562	1032.677734375	-420.0762634277344	-781.7168579101562	1022.763549804688	-678.5620727539062	-833.6671142578125	482.214599609375	-754.6639404296875	-841.31005859375	629.7271118164062	-760.154052734375	-1246.23876953125	233.7639465332031	-730.8006591796875	-1026.443115234375	350.1461486816406	-759.188232421875	-1122.43310546875	62.35309982299805	-734.7422485351562	-1144.0927734375	97.31171417236328	-682.3394165039062	-1207.78662109375	136.9272308349609	-777.75341796875	-1257.673217773438	275.6136169433594	-659.040771484375	-774.5078125	513.7753295898438	-428.9418640136719	-792.409423828125	782.5441284179688	-369.734619140625	-835.980224609375	30.35611915588379	-495.5548095703125	-754.7578735351562	393.0799255371094	-453.2450866699219	-612.928466796875	47.07679748535156	-477.6094360351562	-654.8017578125	43.76132202148438	-534.6210327148438	-733.9597778320312	36.14765167236328	-437.5775146484375	-867.534423828125	31.23940086364746	-574.4336547851562	
